# xmcd CD database file
#
# Track frame offsets:
#        150
#        21038
#        33998
#        54373
#        75153
#        88528
#        107693
#        125435
#        145870
#        162183
#        180185
#        189093
#        202808
#        219438
#        244023
#        260993
#
# Disc length: 3734 seconds
#
# Revision: 0
# Processed by: cddbd v1.5.2PL0 Copyright (c) Steve Scherf et al.
# Submitted via: CUERipper 2.1.5
#
DISCID=c10e9410
DTITLE=Scott Finch - Pipe Dreams
DYEAR=1993
DGENRE=Blues
TTITLE0=Pipe Dream
TTITLE1=Ain't Been Lonely
TTITLE2=Bend The Stone
TTITLE3=The Black Rose
TTITLE4=Everyday World
TTITLE5=Changer
TTITLE6=Drifter
TTITLE7=E.C. Creeper
TTITLE8=Tilt-O-Swerve
TTITLE9=Ebbila
TTITLE10=Dragnet
TTITLE11=Bordertown
TTITLE12=The River
TTITLE13=Godora
TTITLE14=Rain On
TTITLE15=Sea Of Madness
EXTD=
EXTT0=
EXTT1=
EXTT2=
EXTT3=
EXTT4=
EXTT5=
EXTT6=
EXTT7=
EXTT8=
EXTT9=
EXTT10=
EXTT11=
EXTT12=
EXTT13=
EXTT14=
EXTT15=
PLAYORDER=
